<svg width="25" height="25" viewBox="0 0 25 25" fill="none" xmlns="http://www.w3.org/2000/svg">
<path d="M12 24C10.376 22.6236 8.87081 21.1147 7.49999 19.489C5.44285 17.0477 3 13.4118 3 9.94718C2.99911 8.17776 3.52651 6.44784 4.51546 4.97635C5.50441 3.50487 6.91045 2.35797 8.55565 1.6808C10.2008 1.00364 12.0112 0.82664 13.7577 1.17221C15.5042 1.51779 17.1082 2.3704 18.3668 3.62214C19.2048 4.45108 19.869 5.43692 20.321 6.52261C20.7729 7.6083 21.0037 8.77228 21 9.94718C21 13.4118 18.5571 17.0477 16.5 19.489C15.1291 21.1147 13.6239 22.6236 12 24ZM12 6.1146C10.977 6.1146 9.99593 6.51839 9.27257 7.23714C8.54922 7.95589 8.14284 8.93072 8.14284 9.94718C8.14284 10.9636 8.54922 11.9385 9.27257 12.6572C9.99593 13.376 10.977 13.7798 12 13.7798C13.023 13.7798 14.004 13.376 14.7274 12.6572C15.4507 11.9385 15.8571 10.9636 15.8571 9.94718C15.8571 8.93072 15.4507 7.95589 14.7274 7.23714C14.004 6.51839 13.023 6.1146 12 6.1146Z" fill="#0041F5"/>
</svg>
